<svg id="visual" viewBox="0 0 960 540" width="960" height="540" xmlns="http://www.w3.org/2000/svg" xmlns:xlink="http://www.w3.org/1999/xlink" version="1.1"><rect x="0" y="0" width="960" height="540" fill="#002233"></rect><path d="M0 392L26.7 401.5C53.3 411 106.7 430 160 415.7C213.3 401.3 266.7 353.7 320 355.2C373.3 356.7 426.7 407.3 480 417.3C533.3 427.3 586.7 396.7 640 392.2C693.3 387.7 746.7 409.3 800 415.8C853.3 422.3 906.7 413.7 933.3 409.3L960 405L960 541L933.3 541C906.7 541 853.3 541 800 541C746.7 541 693.3 541 640 541C586.7 541 533.3 541 480 541C426.7 541 373.3 541 320 541C266.7 541 213.3 541 160 541C106.7 541 53.3 541 26.7 541L0 541Z" fill="#0066FF" stroke-linecap="round" stroke-linejoin="miter"></path></svg>